<svg width="440" height="85" viewBox="0 0 440 85" fill="none" xmlns="http://www.w3.org/2000/svg">
<g filter="url(#filter0_d_580_697)">
<path fill-rule="evenodd" clip-rule="evenodd" d="M220 57.0004C239.882 57.0004 256 40.8827 256 21.0004C256 13.0706 262.105 3.94169 270 4.68079L436.118 20.2315C442.286 20.8089 447 25.9852 447 32.1793V71.0002C447 78.7322 440.732 85.0002 433 85.0002H7C-0.731989 85.0002 -7 78.7322 -7 71.0002V32.1793C-7 25.9852 -2.2856 20.8088 3.88154 20.2315L170 4.68079C177.895 3.94169 184 13.0706 184 21.0004C184 40.8827 200.118 57.0004 220 57.0004Z" fill="white"/>
</g>
<defs>
<filter id="filter0_d_580_697" x="-9" y="0.638672" width="458" height="84.3613" filterUnits="userSpaceOnUse" color-interpolation-filters="sRGB">
<feFlood flood-opacity="0" result="BackgroundImageFix"/>
<feColorMatrix in="SourceAlpha" type="matrix" values="0 0 0 0 0 0 0 0 0 0 0 0 0 0 0 0 0 0 127 0" result="hardAlpha"/>
<feOffset dy="-2"/>
<feGaussianBlur stdDeviation="1"/>
<feComposite in2="hardAlpha" operator="out"/>
<feColorMatrix type="matrix" values="0 0 0 0 0.298039 0 0 0 0 0.172549 0 0 0 0 0.792157 0 0 0 0.2 0"/>
<feBlend mode="normal" in2="BackgroundImageFix" result="effect1_dropShadow_580_697"/>
<feBlend mode="normal" in="SourceGraphic" in2="effect1_dropShadow_580_697" result="shape"/>
</filter>
</defs>
</svg>
