<svg width="10" height="10" viewBox="0 0 10 10" fill="none" xmlns="http://www.w3.org/2000/svg">
<g clip-path="url(#clip0_522_408)">
<path d="M5 0C2.57283 0 0.550075 1.72963 0.095825 4.02343H1.48377C1.91142 2.4813 3.32169 1.34766 5 1.34766C6.00891 1.34766 6.92062 1.75762 7.58057 2.41943L5.97657 4.02343H10V0L8.53516 1.46484C7.63044 0.559842 6.38082 0 5 0ZM0 5.97657V10L1.46484 8.53516C2.36955 9.44016 3.61918 10 5 10C7.42717 10 9.44993 8.27038 9.90418 5.97657H8.51623C8.08859 7.51869 6.6783 8.65234 5 8.65234C3.99109 8.65234 3.07938 8.24238 2.41943 7.58057L4.02343 5.97657H0Z" fill="white"/>
</g>
<defs>
<clipPath id="clip0_522_408">
<rect width="10" height="10" fill="white"/>
</clipPath>
</defs>
</svg>
