<svg width="65" height="24" viewBox="0 0 65 24" fill="none" xmlns="http://www.w3.org/2000/svg">
<g filter="url(#filter0_d_522_402)">
<rect x="2" width="61" height="20" rx="10" fill="url(#paint0_linear_522_402)" shape-rendering="crispEdges"/>
<rect x="3" y="1" width="59" height="18" rx="9" stroke="url(#paint1_linear_522_402)" stroke-opacity="0.2" stroke-width="2" shape-rendering="crispEdges"/>
<mask id="path-3-outside-1_522_402" maskUnits="userSpaceOnUse" x="18" y="4" width="29" height="11" fill="black">
<rect fill="white" x="18" y="4" width="29" height="11"/>
<path d="M22.37 13.09C22.11 13.09 21.9 13.0267 21.74 12.9C21.58 12.7733 21.4633 12.58 21.39 12.32L19.83 7.08C19.77 6.85333 19.7633 6.65667 19.81 6.49C19.8633 6.32333 19.96 6.19333 20.1 6.1C20.2467 6 20.42 5.95 20.62 5.95C20.8467 5.95 21.0367 6.00667 21.19 6.12C21.3433 6.23333 21.46 6.44333 21.54 6.75L22.77 11.29H22.22L24.99 6.59C25.1233 6.36333 25.2633 6.2 25.41 6.1C25.5633 6 25.7567 5.95 25.99 5.95C26.2367 5.95 26.4267 6.01 26.56 6.13C26.7 6.24333 26.78 6.39 26.8 6.57C26.82 6.75 26.77 6.93667 26.65 7.13L23.38 12.47C23.2467 12.69 23.1033 12.85 22.95 12.95C22.7967 13.0433 22.6033 13.09 22.37 13.09ZM27.6119 13.09C27.2985 13.09 27.0752 12.9967 26.9419 12.81C26.8152 12.6233 26.7785 12.3567 26.8319 12.01L27.6619 6.77C27.7085 6.46333 27.8185 6.23667 27.9919 6.09C28.1652 5.93667 28.4052 5.86 28.7119 5.86C29.0185 5.86 29.2352 5.95333 29.3619 6.14C29.4952 6.32667 29.5319 6.59333 29.4719 6.94L28.6419 12.17C28.5952 12.4833 28.4885 12.7167 28.3219 12.87C28.1552 13.0167 27.9185 13.09 27.6119 13.09ZM30.7071 13.09C30.4138 13.09 30.2004 12.9967 30.0671 12.81C29.9338 12.6233 29.8938 12.36 29.9471 12.02L30.7671 6.86C30.8138 6.55333 30.9271 6.32667 31.1071 6.18C31.2871 6.02667 31.5271 5.95 31.8271 5.95H33.8871C34.7404 5.95 35.3771 6.13333 35.7971 6.5C36.2238 6.86 36.4371 7.35667 36.4371 7.99C36.4371 8.81667 36.1871 9.45333 35.6871 9.9C35.1871 10.3467 34.4571 10.57 33.4971 10.57H32.0171L31.7571 12.18C31.7104 12.4867 31.5971 12.7167 31.4171 12.87C31.2438 13.0167 31.0071 13.09 30.7071 13.09ZM32.2371 9.16H33.5671C33.9338 9.16 34.2104 9.07333 34.3971 8.9C34.5904 8.72667 34.6871 8.47667 34.6871 8.15C34.6871 7.87667 34.6004 7.67667 34.4271 7.55C34.2604 7.42333 33.9971 7.36 33.6371 7.36H32.5171L32.2371 9.16ZM42.0363 13.11C41.2496 13.11 40.6429 12.8767 40.2163 12.41C39.7963 11.9367 39.5863 11.26 39.5863 10.38C39.5863 9.45333 39.7096 8.65 39.9563 7.97C40.2029 7.29 40.5529 6.76667 41.0063 6.4C41.4663 6.02667 42.0063 5.84 42.6263 5.84C43.4129 5.84 44.0163 6.07667 44.4362 6.55C44.8563 7.01667 45.0663 7.68667 45.0663 8.56C45.0663 9.48667 44.9429 10.2933 44.6963 10.98C44.4496 11.66 44.0996 12.1867 43.6463 12.56C43.1929 12.9267 42.6563 13.11 42.0363 13.11ZM42.0962 11.65C42.4429 11.65 42.7296 11.3767 42.9563 10.83C43.1829 10.2767 43.3063 9.45333 43.3263 8.36C43.3329 7.99333 43.2729 7.72667 43.1463 7.56C43.0196 7.38667 42.8296 7.3 42.5763 7.3C42.2363 7.3 41.9463 7.57 41.7063 8.11C41.4729 8.64333 41.3496 9.47 41.3363 10.59C41.3296 10.95 41.3896 11.2167 41.5163 11.39C41.6429 11.5633 41.8363 11.65 42.0962 11.65Z"/>
</mask>
<path d="M22.37 13.09C22.11 13.09 21.9 13.0267 21.74 12.9C21.58 12.7733 21.4633 12.58 21.39 12.32L19.83 7.08C19.77 6.85333 19.7633 6.65667 19.81 6.49C19.8633 6.32333 19.96 6.19333 20.1 6.1C20.2467 6 20.42 5.95 20.62 5.95C20.8467 5.95 21.0367 6.00667 21.19 6.12C21.3433 6.23333 21.46 6.44333 21.54 6.75L22.77 11.29H22.22L24.99 6.59C25.1233 6.36333 25.2633 6.2 25.41 6.1C25.5633 6 25.7567 5.95 25.99 5.95C26.2367 5.95 26.4267 6.01 26.56 6.13C26.7 6.24333 26.78 6.39 26.8 6.57C26.82 6.75 26.77 6.93667 26.65 7.13L23.38 12.47C23.2467 12.69 23.1033 12.85 22.95 12.95C22.7967 13.0433 22.6033 13.09 22.37 13.09ZM27.6119 13.09C27.2985 13.09 27.0752 12.9967 26.9419 12.81C26.8152 12.6233 26.7785 12.3567 26.8319 12.01L27.6619 6.77C27.7085 6.46333 27.8185 6.23667 27.9919 6.09C28.1652 5.93667 28.4052 5.86 28.7119 5.86C29.0185 5.86 29.2352 5.95333 29.3619 6.14C29.4952 6.32667 29.5319 6.59333 29.4719 6.94L28.6419 12.17C28.5952 12.4833 28.4885 12.7167 28.3219 12.87C28.1552 13.0167 27.9185 13.09 27.6119 13.09ZM30.7071 13.09C30.4138 13.09 30.2004 12.9967 30.0671 12.81C29.9338 12.6233 29.8938 12.36 29.9471 12.02L30.7671 6.86C30.8138 6.55333 30.9271 6.32667 31.1071 6.18C31.2871 6.02667 31.5271 5.95 31.8271 5.95H33.8871C34.7404 5.95 35.3771 6.13333 35.7971 6.5C36.2238 6.86 36.4371 7.35667 36.4371 7.99C36.4371 8.81667 36.1871 9.45333 35.6871 9.9C35.1871 10.3467 34.4571 10.57 33.4971 10.57H32.0171L31.7571 12.18C31.7104 12.4867 31.5971 12.7167 31.4171 12.87C31.2438 13.0167 31.0071 13.09 30.7071 13.09ZM32.2371 9.16H33.5671C33.9338 9.16 34.2104 9.07333 34.3971 8.9C34.5904 8.72667 34.6871 8.47667 34.6871 8.15C34.6871 7.87667 34.6004 7.67667 34.4271 7.55C34.2604 7.42333 33.9971 7.36 33.6371 7.36H32.5171L32.2371 9.16ZM42.0363 13.11C41.2496 13.11 40.6429 12.8767 40.2163 12.41C39.7963 11.9367 39.5863 11.26 39.5863 10.38C39.5863 9.45333 39.7096 8.65 39.9563 7.97C40.2029 7.29 40.5529 6.76667 41.0063 6.4C41.4663 6.02667 42.0063 5.84 42.6263 5.84C43.4129 5.84 44.0163 6.07667 44.4362 6.55C44.8563 7.01667 45.0663 7.68667 45.0663 8.56C45.0663 9.48667 44.9429 10.2933 44.6963 10.98C44.4496 11.66 44.0996 12.1867 43.6463 12.56C43.1929 12.9267 42.6563 13.11 42.0363 13.11ZM42.0962 11.65C42.4429 11.65 42.7296 11.3767 42.9563 10.83C43.1829 10.2767 43.3063 9.45333 43.3263 8.36C43.3329 7.99333 43.2729 7.72667 43.1463 7.56C43.0196 7.38667 42.8296 7.3 42.5763 7.3C42.2363 7.3 41.9463 7.57 41.7063 8.11C41.4729 8.64333 41.3496 9.47 41.3363 10.59C41.3296 10.95 41.3896 11.2167 41.5163 11.39C41.6429 11.5633 41.8363 11.65 42.0962 11.65Z" fill="#CC8500"/>
<path d="M21.74 12.9L22.3607 12.116L22.3607 12.116L21.74 12.9ZM21.39 12.32L22.3524 12.0485L22.3505 12.0416L22.3484 12.0347L21.39 12.32ZM19.83 7.08L18.8633 7.33589L18.8672 7.35068L18.8716 7.36533L19.83 7.08ZM19.81 6.49L18.8576 6.18522L18.852 6.2027L18.847 6.22037L19.81 6.49ZM20.1 6.1L20.6547 6.93209L20.6633 6.92623L20.1 6.1ZM21.54 6.75L20.5723 7.00243L20.5748 7.0115L21.54 6.75ZM22.77 11.29V12.29H24.077L23.7352 11.0285L22.77 11.29ZM22.22 11.29L21.3585 10.7823L20.4699 12.29H22.22V11.29ZM24.99 6.59L25.8515 7.09774L25.8519 7.09702L24.99 6.59ZM25.41 6.1L24.8637 5.26239L24.8551 5.26799L24.8467 5.27377L25.41 6.1ZM26.56 6.13L25.891 6.87329L25.9105 6.89079L25.9308 6.90724L26.56 6.13ZM26.8 6.57L25.8061 6.68043L25.8061 6.68043L26.8 6.57ZM26.65 7.13L25.8003 6.60263L25.7972 6.60777L26.65 7.13ZM23.38 12.47L22.5272 11.9478L22.5248 11.9517L23.38 12.47ZM22.95 12.95L23.4699 13.8042L23.4832 13.7961L23.4963 13.7876L22.95 12.95ZM22.37 12.09C22.3202 12.09 22.3021 12.0839 22.3062 12.0851C22.3086 12.0858 22.3157 12.0882 22.3262 12.0936C22.3368 12.099 22.3487 12.1064 22.3607 12.116L21.1193 13.684C21.4995 13.9851 21.9474 14.09 22.37 14.09V12.09ZM22.3607 12.116C22.3841 12.1344 22.3917 12.1484 22.3887 12.1433C22.3846 12.1365 22.3694 12.1087 22.3524 12.0485L20.4276 12.5915C20.5397 12.989 20.7482 13.3903 21.1193 13.684L22.3607 12.116ZM22.3484 12.0347L20.7884 6.79467L18.8716 7.36533L20.4316 12.6053L22.3484 12.0347ZM20.7967 6.82411C20.7824 6.76996 20.7798 6.7393 20.7794 6.72862C20.7791 6.71893 20.7808 6.7318 20.773 6.75963L18.847 6.22037C18.7382 6.60919 18.7733 6.99574 18.8633 7.33589L20.7967 6.82411ZM20.7624 6.79478C20.7582 6.80793 20.7474 6.83399 20.725 6.8642C20.7022 6.89482 20.6764 6.91755 20.6547 6.93205L19.5453 5.26795C19.2088 5.49225 18.977 5.81215 18.8576 6.18522L20.7624 6.79478ZM20.6633 6.92623C20.6561 6.93117 20.648 6.93582 20.6394 6.93983C20.6309 6.94384 20.6232 6.94657 20.6172 6.94832C20.6046 6.95196 20.6037 6.95 20.62 6.95V4.95C20.2454 4.95 19.8699 5.04655 19.5367 5.27377L20.6633 6.92623ZM20.62 6.95C20.6501 6.95 20.6566 6.95375 20.6467 6.95079C20.6418 6.94932 20.634 6.94654 20.6244 6.94179C20.6147 6.937 20.6049 6.93105 20.5956 6.92418L21.7844 5.31582C21.4283 5.05262 21.0191 4.95 20.62 4.95V6.95ZM20.5956 6.92418C20.5315 6.87682 20.512 6.83664 20.5183 6.84814C20.5211 6.85317 20.5285 6.86747 20.5385 6.89387C20.5486 6.92016 20.5602 6.95581 20.5724 7.00242L22.5076 6.49758C22.405 6.10437 22.2087 5.62945 21.7844 5.31582L20.5956 6.92418ZM20.5748 7.0115L21.8048 11.5515L23.7352 11.0285L22.5052 6.4885L20.5748 7.0115ZM22.77 10.29H22.22V12.29H22.77V10.29ZM23.0815 11.7977L25.8515 7.09774L24.1285 6.08226L21.3585 10.7823L23.0815 11.7977ZM25.8519 7.09702C25.895 7.02379 25.93 6.97659 25.9543 6.94829C25.9786 6.91988 25.9862 6.91746 25.9733 6.92623L24.8467 5.27377C24.5339 5.48703 24.3032 5.78528 24.1281 6.08298L25.8519 7.09702ZM25.9563 6.93761C25.9458 6.94446 25.9365 6.94915 25.9296 6.95214C25.9228 6.9551 25.9193 6.95592 25.9204 6.95565C25.9229 6.95499 25.944 6.95 25.99 6.95V4.95C25.6156 4.95 25.2188 5.03081 24.8637 5.26239L25.9563 6.93761ZM25.99 6.95C26.0345 6.95 26.0387 6.95565 26.0164 6.94858C25.9903 6.94036 25.9418 6.91897 25.891 6.87329L27.229 5.38671C26.8529 5.04821 26.3905 4.95 25.99 4.95V6.95ZM25.9308 6.90724C25.9072 6.88815 25.8745 6.854 25.8471 6.80385C25.8198 6.7538 25.8093 6.70867 25.8061 6.68043L27.7939 6.45957C27.745 6.01957 27.535 5.63272 27.1892 5.35276L25.9308 6.90724ZM25.8061 6.68043C25.8015 6.63861 25.8065 6.60504 25.8116 6.58626C25.816 6.56977 25.8175 6.57495 25.8004 6.60264L27.4996 7.65736C27.7069 7.32337 27.8444 6.91428 27.7939 6.45957L25.8061 6.68043ZM25.7972 6.60777L22.5272 11.9478L24.2328 12.9922L27.5028 7.65222L25.7972 6.60777ZM22.5248 11.9517C22.4397 12.0921 22.3912 12.1206 22.4037 12.1124L23.4963 13.7876C23.8155 13.5794 24.0536 13.2879 24.2352 12.9883L22.5248 11.9517ZM22.4301 12.0958C22.4508 12.0832 22.4622 12.0813 22.4554 12.0829C22.4474 12.0848 22.4209 12.09 22.37 12.09V14.09C22.7328 14.09 23.1195 14.0175 23.4699 13.8042L22.4301 12.0958ZM26.9419 12.81L26.1144 13.3715L26.1212 13.3815L26.1281 13.3912L26.9419 12.81ZM26.8319 12.01L25.8442 11.8536L25.8435 11.8579L26.8319 12.01ZM27.6619 6.77L28.6496 6.92645L28.6505 6.92044L27.6619 6.77ZM27.9919 6.09L28.6378 6.85339L28.6462 6.84628L28.6544 6.839L27.9919 6.09ZM29.3619 6.14L28.5344 6.7015L28.5412 6.71145L28.5481 6.72124L29.3619 6.14ZM29.4719 6.94L28.4864 6.76944L28.4842 6.78326L29.4719 6.94ZM28.6419 12.17L27.6542 12.0133L27.6528 12.0227L28.6419 12.17ZM28.3219 12.87L28.9825 13.6207L28.9908 13.6134L28.9989 13.6059L28.3219 12.87ZM27.6119 12.09C27.5504 12.09 27.5543 12.0803 27.595 12.0973C27.6166 12.1064 27.6454 12.1217 27.6762 12.1459C27.7074 12.1704 27.7343 12.1989 27.7556 12.2288L26.1281 13.3912C26.513 13.93 27.1037 14.09 27.6119 14.09V12.09ZM27.7694 12.2485C27.8076 12.3048 27.8114 12.3439 27.8101 12.3338C27.8082 12.32 27.8041 12.2671 27.8202 12.1621L25.8435 11.8579C25.7723 12.3208 25.7849 12.886 26.1144 13.3715L27.7694 12.2485ZM27.8196 12.1664L28.6496 6.92645L26.6742 6.61355L25.8442 11.8536L27.8196 12.1664ZM28.6505 6.92044C28.6621 6.8444 28.6767 6.81149 28.679 6.8066C28.6799 6.80477 28.6776 6.81 28.6703 6.81954C28.6629 6.8293 28.6521 6.84128 28.6378 6.85339L27.3459 5.32661C26.9299 5.67862 26.7429 6.16173 26.6733 6.61956L28.6505 6.92044ZM28.6544 6.839C28.6425 6.84956 28.6307 6.8576 28.6206 6.8632C28.6108 6.86868 28.6052 6.87039 28.6062 6.87008C28.6091 6.86913 28.6402 6.86 28.7119 6.86V4.86C28.2418 4.86 27.738 4.97946 27.3293 5.341L28.6544 6.839ZM28.7119 6.86C28.7681 6.86 28.7568 6.86911 28.7088 6.84841C28.6834 6.83748 28.6514 6.81967 28.618 6.79246C28.5844 6.76504 28.5562 6.7336 28.5344 6.7015L30.1894 5.5785C29.8136 5.02473 29.2193 4.86 28.7119 4.86V6.86ZM28.5481 6.72124C28.528 6.69306 28.5151 6.66667 28.5074 6.64612C28.4999 6.62616 28.4985 6.61492 28.4987 6.61622C28.4989 6.61782 28.5005 6.63062 28.4995 6.65698C28.4985 6.68334 28.495 6.72041 28.4865 6.76946L30.4572 7.11054C30.5389 6.63838 30.5303 6.05526 30.1756 5.55876L28.5481 6.72124ZM28.4842 6.78326L27.6542 12.0133L29.6295 12.3267L30.4595 7.09674L28.4842 6.78326ZM27.6528 12.0227C27.6402 12.1074 27.6239 12.1501 27.6174 12.1642C27.6121 12.1758 27.6179 12.1588 27.6448 12.1341L28.9989 13.6059C29.3898 13.2463 29.5639 12.7679 29.631 12.3173L27.6528 12.0227ZM27.6612 12.1193C27.6772 12.1053 27.6925 12.0951 27.7049 12.0884C27.7171 12.0817 27.7241 12.0796 27.7234 12.0798C27.7205 12.0807 27.6877 12.09 27.6119 12.09V14.09C28.0689 14.09 28.5739 13.9803 28.9825 13.6207L27.6612 12.1193ZM30.0671 12.81L30.8808 12.2288L30.8808 12.2288L30.0671 12.81ZM29.9471 12.02L28.9595 11.8631L28.9592 11.865L29.9471 12.02ZM30.7671 6.86L31.7547 7.01695L31.7557 7.01044L30.7671 6.86ZM31.1071 6.18L31.7388 6.95523L31.7473 6.94833L31.7556 6.94124L31.1071 6.18ZM35.7971 6.5L35.1395 7.25332L35.1458 7.25886L35.1522 7.26429L35.7971 6.5ZM35.6871 9.9L35.0209 9.15424L35.0209 9.15424L35.6871 9.9ZM32.0171 10.57V9.57H31.1656L31.0299 10.4106L32.0171 10.57ZM31.7571 12.18L30.7699 12.0206L30.7685 12.0296L31.7571 12.18ZM31.4171 12.87L32.0631 13.6334L32.0656 13.6312L31.4171 12.87ZM32.2371 9.16L31.249 9.00629L31.0695 10.16H32.2371V9.16ZM34.3971 8.9L33.7296 8.15543L33.7231 8.16126L33.7167 8.16721L34.3971 8.9ZM34.4271 7.55L33.822 8.34616L33.8295 8.35185L33.8371 8.35739L34.4271 7.55ZM32.5171 7.36V6.36H31.6606L31.529 7.20629L32.5171 7.36ZM30.7071 12.09C30.6638 12.09 30.6799 12.0828 30.7279 12.1038C30.7526 12.1146 30.7814 12.1311 30.8104 12.1546C30.8396 12.1781 30.8631 12.204 30.8808 12.2288L29.2534 13.3912C29.6258 13.9127 30.1908 14.09 30.7071 14.09V12.09ZM30.8808 12.2288C30.899 12.2541 30.9107 12.2778 30.9178 12.2962C30.9247 12.3141 30.926 12.324 30.9258 12.3223C30.9255 12.3204 30.9238 12.3079 30.9244 12.2827C30.9249 12.2575 30.9277 12.222 30.935 12.175L28.9592 11.865C28.8853 12.3362 28.9064 12.9055 29.2534 13.3912L30.8808 12.2288ZM30.9347 12.1769L31.7547 7.01695L29.7795 6.70305L28.9595 11.8631L30.9347 12.1769ZM31.7557 7.01044C31.7667 6.93809 31.7807 6.90895 31.7815 6.90721C31.7817 6.90688 31.7787 6.91298 31.7709 6.92282C31.763 6.93286 31.7523 6.94426 31.7388 6.95523L30.4754 5.40476C30.0461 5.75458 29.8497 6.2414 29.7785 6.70956L31.7557 7.01044ZM31.7556 6.94124C31.748 6.94772 31.7403 6.95286 31.7337 6.95647C31.7272 6.96001 31.7242 6.96078 31.7264 6.96008C31.7314 6.9585 31.7613 6.95 31.8271 6.95V4.95C31.355 4.95 30.8639 5.07354 30.4586 5.41876L31.7556 6.94124ZM31.8271 6.95H33.8871V4.95H31.8271V6.95ZM33.8871 6.95C34.6219 6.95 34.9769 7.11143 35.1395 7.25332L36.4548 5.74668C35.7773 5.15523 34.8589 4.95 33.8871 4.95V6.95ZM35.1522 7.26429C35.3219 7.40741 35.4371 7.60693 35.4371 7.99H37.4371C37.4371 7.10641 37.1257 6.31259 36.442 5.73571L35.1522 7.26429ZM35.4371 7.99C35.4371 8.60359 35.2604 8.94032 35.0209 9.15424L36.3533 10.6458C37.1139 9.96634 37.4371 9.02974 37.4371 7.99H35.4371ZM35.0209 9.15424C34.7698 9.37859 34.3164 9.57 33.4971 9.57V11.57C34.5978 11.57 35.6045 11.3147 36.3533 10.6458L35.0209 9.15424ZM33.4971 9.57H32.0171V11.57H33.4971V9.57ZM31.0299 10.4106L30.7699 12.0206L32.7443 12.3394L33.0043 10.7294L31.0299 10.4106ZM30.7685 12.0296C30.7575 12.1021 30.7431 12.1343 30.7401 12.1405C30.7388 12.1432 30.7401 12.1399 30.7454 12.1329C30.7509 12.1258 30.7587 12.1172 30.7686 12.1088L32.0656 13.6312C32.4795 13.2786 32.6743 12.7995 32.7457 12.3304L30.7685 12.0296ZM30.7712 12.1066C30.7826 12.097 30.7935 12.0899 30.8024 12.0851C30.8111 12.0804 30.8156 12.0792 30.8136 12.0798C30.8089 12.0813 30.7772 12.09 30.7071 12.09V14.09C31.1668 14.09 31.6581 13.9761 32.0631 13.6334L30.7712 12.1066ZM32.2371 10.16H33.5671V8.16H32.2371V10.16ZM33.5671 10.16C34.076 10.16 34.6385 10.0405 35.0776 9.63279L33.7167 8.16721C33.7466 8.13941 33.7666 8.13573 33.7507 8.14072C33.7308 8.14696 33.6746 8.16 33.5671 8.16V10.16ZM35.0647 9.64457C35.5218 9.23471 35.6871 8.68215 35.6871 8.15H33.6871C33.6871 8.21617 33.6772 8.23401 33.6819 8.22185C33.6844 8.21547 33.6896 8.20412 33.699 8.19047C33.7084 8.17672 33.7192 8.16476 33.7296 8.15543L35.0647 9.64457ZM35.6871 8.15C35.6871 7.65409 35.5173 7.10809 35.0171 6.74261L33.8371 8.35739C33.7778 8.31403 33.7308 8.25329 33.7046 8.19261C33.6816 8.13956 33.6871 8.11651 33.6871 8.15H35.6871ZM35.0322 6.75384C34.6052 6.42932 34.0742 6.36 33.6371 6.36V8.36C33.7624 8.36 33.836 8.37142 33.8708 8.37978C33.9057 8.38818 33.8762 8.38734 33.822 8.34616L35.0322 6.75384ZM33.6371 6.36H32.5171V8.36H33.6371V6.36ZM31.529 7.20629L31.249 9.00629L33.2252 9.31371L33.5052 7.51371L31.529 7.20629ZM40.2163 12.41L39.4683 13.0737L39.4732 13.0793L39.4782 13.0848L40.2163 12.41ZM39.9563 7.97L40.8963 8.311L40.8963 8.311L39.9563 7.97ZM41.0063 6.4L41.6351 7.17751L41.6364 7.17646L41.0063 6.4ZM44.4362 6.55L43.6882 7.21373L43.693 7.21896L44.4362 6.55ZM44.6963 10.98L45.6363 11.321L45.6374 11.3181L44.6963 10.98ZM43.6463 12.56L44.2751 13.3375L44.282 13.3319L43.6463 12.56ZM42.9563 10.83L43.88 11.213L43.8816 11.2091L42.9563 10.83ZM43.3263 8.36L44.3261 8.37829L44.3261 8.37818L43.3263 8.36ZM43.1463 7.56L42.3389 8.15002L42.3444 8.1576L42.3501 8.16508L43.1463 7.56ZM41.7063 8.11L40.7924 7.70385L40.7901 7.70918L41.7063 8.11ZM41.3363 10.59L42.3361 10.6085L42.3362 10.6019L41.3363 10.59ZM41.5163 11.39L42.3236 10.8L42.3236 10.8L41.5163 11.39ZM42.0363 12.11C41.4568 12.11 41.147 11.946 40.9543 11.7352L39.4782 13.0848C40.1388 13.8073 41.0424 14.11 42.0363 14.11V12.11ZM40.9642 11.7463C40.7604 11.5166 40.5863 11.1109 40.5863 10.38H38.5863C38.5863 11.4091 38.8321 12.3567 39.4683 13.0737L40.9642 11.7463ZM40.5863 10.38C40.5863 9.5385 40.6987 8.85583 40.8963 8.311L39.0162 7.629C38.7205 8.44417 38.5863 9.36816 38.5863 10.38H40.5863ZM40.8963 8.311C41.0958 7.76117 41.3537 7.40511 41.6351 7.17751L40.3774 5.62249C39.7521 6.12822 39.3101 6.81883 39.0162 7.629L40.8963 8.311ZM41.6364 7.17646C41.9095 6.95485 42.2242 6.84 42.6263 6.84V4.84C41.7883 4.84 41.023 5.09849 40.3761 5.62354L41.6364 7.17646ZM42.6263 6.84C43.202 6.84 43.5027 7.0046 43.6883 7.21371L45.1842 5.88629C44.5298 5.14873 43.6238 4.84 42.6263 4.84V6.84ZM43.693 7.21896C43.8927 7.44095 44.0663 7.83695 44.0663 8.56H46.0663C46.0663 7.53638 45.8198 6.59238 45.1795 5.88103L43.693 7.21896ZM44.0663 8.56C44.0663 9.40113 43.9539 10.0885 43.7551 10.6419L45.6374 11.3181C45.9319 10.4981 46.0663 9.57221 46.0663 8.56H44.0663ZM43.7562 10.639C43.5565 11.1895 43.297 11.5522 43.0105 11.7881L44.282 13.3319C44.9022 12.8211 45.3427 12.1305 45.6363 11.321L43.7562 10.639ZM43.0174 11.7825C42.7538 11.9957 42.4429 12.11 42.0363 12.11V14.11C42.8696 14.11 43.632 13.8576 44.2751 13.3375L43.0174 11.7825ZM42.0962 12.65C43.0871 12.65 43.6177 11.8456 43.88 11.213L42.0325 10.447C41.9926 10.5433 41.9565 10.6117 41.9274 10.6581C41.8981 10.7049 41.8809 10.7215 41.8812 10.7213C41.8826 10.7199 41.9044 10.6997 41.9487 10.6806C41.9954 10.6605 42.0474 10.65 42.0962 10.65V12.65ZM43.8816 11.2091C44.1793 10.4824 44.3054 9.51022 44.3261 8.37829L42.3264 8.34171C42.3071 9.39645 42.1865 10.071 42.0309 10.4509L43.8816 11.2091ZM44.3261 8.37818C44.3341 7.93812 44.2747 7.39215 43.9424 6.95492L42.3501 8.16508C42.3044 8.10499 42.3029 8.07014 42.3106 8.10451C42.3183 8.13855 42.3288 8.21311 42.3264 8.34182L44.3261 8.37818ZM43.9536 6.96998C43.6032 6.49049 43.0835 6.3 42.5763 6.3V8.3C42.5896 8.3 42.5537 8.30219 42.4937 8.27482C42.4282 8.24491 42.3738 8.19779 42.3389 8.15002L43.9536 6.96998ZM42.5763 6.3C41.6034 6.3 41.0666 7.087 40.7924 7.70386L42.6201 8.51614C42.6628 8.41995 42.7012 8.35087 42.7324 8.30315C42.7638 8.25511 42.783 8.2364 42.7852 8.23439C42.7863 8.23336 42.7668 8.25165 42.7245 8.26977C42.6798 8.28893 42.6278 8.3 42.5763 8.3V6.3ZM40.7901 7.70918C40.4737 8.43243 40.35 9.42499 40.3363 10.5781L42.3362 10.6019C42.3491 9.51501 42.4722 8.85424 42.6224 8.51082L40.7901 7.70918ZM40.3364 10.5715C40.3282 11.0155 40.3917 11.5461 40.7089 11.98L42.3236 10.8C42.36 10.8498 42.3597 10.8753 42.3519 10.8405C42.344 10.8054 42.3338 10.7322 42.3361 10.6085L40.3364 10.5715ZM40.7089 11.98C41.0645 12.4667 41.593 12.65 42.0962 12.65V10.65C42.076 10.65 42.1076 10.6466 42.1653 10.6725C42.2294 10.7012 42.2859 10.7483 42.3236 10.8L40.7089 11.98Z" fill="white" fill-opacity="0.5" mask="url(#path-3-outside-1_522_402)"/>
</g>
<defs>
<filter id="filter0_d_522_402" x="0" y="0" width="65" height="24" filterUnits="userSpaceOnUse" color-interpolation-filters="sRGB">
<feFlood flood-opacity="0" result="BackgroundImageFix"/>
<feColorMatrix in="SourceAlpha" type="matrix" values="0 0 0 0 0 0 0 0 0 0 0 0 0 0 0 0 0 0 127 0" result="hardAlpha"/>
<feOffset dy="2"/>
<feGaussianBlur stdDeviation="1"/>
<feComposite in2="hardAlpha" operator="out"/>
<feColorMatrix type="matrix" values="0 0 0 0 0.740833 0 0 0 0 0.7112 0 0 0 0 0 0 0 0 0.5 0"/>
<feBlend mode="normal" in2="BackgroundImageFix" result="effect1_dropShadow_522_402"/>
<feBlend mode="normal" in="SourceGraphic" in2="effect1_dropShadow_522_402" result="shape"/>
</filter>
<linearGradient id="paint0_linear_522_402" x1="5.69697" y1="2.72727" x2="60.5426" y2="19.1272" gradientUnits="userSpaceOnUse">
<stop stop-color="#CFAC00"/>
<stop offset="0.325349" stop-color="#E4DB00"/>
<stop offset="1" stop-color="#D7A100"/>
</linearGradient>
<linearGradient id="paint1_linear_522_402" x1="32.5" y1="0" x2="32.5" y2="20" gradientUnits="userSpaceOnUse">
<stop stop-color="white" stop-opacity="0.5"/>
<stop offset="0.296666" stop-color="white" stop-opacity="0"/>
<stop offset="0.641666" stop-color="white" stop-opacity="0"/>
<stop offset="0.956666" stop-color="white"/>
</linearGradient>
</defs>
</svg>
