<svg width="24" height="24" viewBox="0 0 24 24" fill="none" xmlns="http://www.w3.org/2000/svg">
<path d="M4.13987 6.89745C2.96473 6.89745 2.23145 7.67059 2.23145 8.89631V11.4274C2.23145 12.4822 2.74359 13.2052 3.67787 13.386V19.6337C3.67787 21.5323 4.71245 22.5266 6.61102 22.5266H17.3887C19.2873 22.5266 20.3219 21.5323 20.3219 19.6337V13.3864C21.266 13.2056 21.7683 12.4826 21.7683 11.4279V8.89673C21.7683 7.67102 21.0954 6.89788 19.8599 6.89788H17.7299C18.2926 6.34502 18.6239 5.62202 18.6239 4.80859C18.6239 2.85988 17.087 1.47388 15.1383 1.47388C13.7022 1.47388 12.5266 2.26716 12.0046 3.68359C11.4817 2.26716 10.2967 1.47388 8.86059 1.47388C6.92173 1.47388 5.37502 2.85988 5.37502 4.80816C5.37502 5.62245 5.69645 6.34545 6.25873 6.89788L4.13987 6.89745ZM9.61402 6.89745C7.95673 6.89745 7.08287 5.92288 7.08287 4.87845C7.08287 3.79373 7.88645 3.15088 8.9613 3.15088C10.1969 3.15088 11.171 4.10488 11.171 5.70216V6.89745H9.61402ZM14.3853 6.89745H12.8283V5.70173C12.8283 4.10488 13.8029 3.15088 15.0384 3.15088C16.1133 3.15088 16.9267 3.79373 16.9267 4.87802C16.9267 5.92288 16.0224 6.89745 14.3853 6.89745ZM4.55173 8.41416H11.111V11.9096H4.5513C4.04902 11.9096 3.84845 11.6987 3.84845 11.1964V9.11702C3.84845 8.61516 4.04902 8.41416 4.5513 8.41416M19.4574 8.41416C19.9597 8.41416 20.1504 8.61516 20.1504 9.11702V11.1964C20.1504 11.6987 19.9597 11.9096 19.4574 11.9096H12.8887V8.41416H19.4574ZM6.6003 21.0202C5.75687 21.0202 5.29487 20.5479 5.29487 19.7143V13.4263H11.1106V21.0202H6.6003ZM18.7049 19.7143C18.7049 20.5479 18.2424 21.0202 17.4089 21.0202H12.8887V13.4263H18.7044L18.7049 19.7143Z" fill="url(#paint0_linear_475_1163)"/>
<defs>
<linearGradient id="paint0_linear_475_1163" x1="2.23145" y1="12.0002" x2="21.7683" y2="12.0002" gradientUnits="userSpaceOnUse">
<stop stop-color="#A03D8C"/>
<stop offset="1" stop-color="#4C2CCA"/>
</linearGradient>
</defs>
</svg>
