<svg width="24" height="24" viewBox="0 0 24 24" fill="none" xmlns="http://www.w3.org/2000/svg">
<path d="M11.1108 12.231V6.90728H9.61423C7.95651 6.90728 7.08265 5.83242 7.08265 4.78799C7.08265 3.70328 7.88623 3.06042 8.96108 3.06042C10.1967 3.06042 11.1609 4.01442 11.1609 5.61171V6.90728H12.8384V5.61171C12.8384 4.01442 13.8027 3.06042 15.0382 3.06042C16.1131 3.06042 16.9265 3.70328 16.9265 4.78757C16.9265 5.83242 16.0222 6.90728 14.3851 6.90728H12.8885V12.2314H19.9702C21.0648 12.2314 21.6575 11.8097 21.6575 10.7349V8.40428C21.6575 7.33971 21.0648 6.90771 19.9702 6.90771H17.6298C18.2525 6.34542 18.6241 5.58171 18.6241 4.71771C18.6241 2.77928 17.0872 1.38342 15.1385 1.38342C13.6921 1.38342 12.5169 2.18657 12.0048 3.61328C11.4922 2.18699 10.3072 1.38342 8.8608 1.38342C6.92194 1.38342 5.37523 2.77928 5.37523 4.71771C5.37523 5.58171 5.73694 6.34542 6.36951 6.90771H4.02951C2.99451 6.90771 2.3418 7.33971 2.3418 8.40428V10.7349C2.3418 11.8097 2.94437 12.2314 4.02908 12.2314L11.1108 12.231ZM11.1108 22.617V13.3059H3.77794V20.0657C3.77794 21.7431 4.76237 22.617 6.4398 22.617H11.1108ZM12.8885 13.3059V22.617H17.5595C19.2369 22.617 20.2209 21.7431 20.2209 20.0657V13.3059H12.8885Z" fill="url(#paint0_linear_475_1192)"/>
<defs>
<linearGradient id="paint0_linear_475_1192" x1="2.3418" y1="12.0002" x2="21.6575" y2="12.0002" gradientUnits="userSpaceOnUse">
<stop stop-color="#A03D8C"/>
<stop offset="1" stop-color="#4C2CCA"/>
</linearGradient>
</defs>
</svg>
