<svg width="30" height="30" viewBox="0 0 30 30" fill="none" xmlns="http://www.w3.org/2000/svg">
<path d="M21.25 4.17499C23.1503 5.2721 24.7282 6.85008 25.8253 8.75034C26.9224 10.6506 27.5 12.8062 27.5 15.0004C27.5 17.1946 26.9224 19.3502 25.8253 21.2504C24.7281 23.1506 23.1501 24.7286 21.2499 25.8257C19.3496 26.9228 17.194 27.5003 14.9998 27.5003C12.8056 27.5003 10.65 26.9227 8.74979 25.8255C6.84956 24.7284 5.27161 23.1503 4.17454 21.2501C3.07747 19.3498 2.49994 17.1942 2.5 15L2.50625 14.595C2.57625 12.4362 3.20443 10.3324 4.32955 8.48873C5.45466 6.64502 7.03832 5.1243 8.92612 4.07484C10.8139 3.02538 12.9414 2.48298 15.1013 2.50053C17.2611 2.51809 19.3795 3.09498 21.25 4.17499ZM15 7.49999C14.6685 7.49999 14.3505 7.63168 14.1161 7.8661C13.8817 8.10053 13.75 8.41847 13.75 8.74999C12.7554 8.74999 11.8016 9.14508 11.0983 9.84834C10.3951 10.5516 10 11.5054 10 12.5C10 13.4945 10.3951 14.4484 11.0983 15.1516C11.8016 15.8549 12.7554 16.25 13.75 16.25V18.75C13.5427 18.7615 13.3357 18.7221 13.1471 18.6354C12.9584 18.5487 12.7938 18.4173 12.6675 18.2525L12.5825 18.1262C12.4115 17.8504 12.1399 17.6519 11.8252 17.5728C11.5105 17.4936 11.1773 17.5399 10.8961 17.7019C10.6149 17.8639 10.4077 18.129 10.3184 18.441C10.2291 18.753 10.2646 19.0875 10.4175 19.3737C10.7365 19.9271 11.1916 20.3897 11.7396 20.7179C12.2876 21.046 12.9103 21.2287 13.5487 21.2487H13.75C13.7497 21.5551 13.862 21.8509 14.0655 22.08C14.269 22.309 14.5495 22.4554 14.8538 22.4912L15 22.5C15.3315 22.5 15.6495 22.3683 15.8839 22.1339C16.1183 21.8995 16.25 21.5815 16.25 21.25L16.47 21.2437C17.4445 21.1874 18.3586 20.7533 19.0182 20.0337C19.6777 19.3141 20.0306 18.3657 20.002 17.3899C19.9734 16.4142 19.5654 15.4881 18.8648 14.8085C18.1642 14.1288 17.2261 13.749 16.25 13.75V11.25C16.6975 11.235 17.0887 11.425 17.3325 11.7475L17.4175 11.8737C17.5885 12.1495 17.8601 12.348 18.1748 12.4272C18.4895 12.5064 18.8227 12.4601 19.1039 12.2981C19.3851 12.136 19.5923 11.871 19.6816 11.559C19.7709 11.247 19.7354 10.9125 19.5825 10.6262C19.2636 10.0727 18.8086 9.60976 18.2606 9.2814C17.7126 8.95303 17.0898 8.77011 16.4513 8.74999H16.25C16.25 8.41847 16.1183 8.10053 15.8839 7.8661C15.6495 7.63168 15.3315 7.49999 15 7.49999ZM16.25 16.25C16.5815 16.25 16.8995 16.3817 17.1339 16.6161C17.3683 16.8505 17.5 17.1685 17.5 17.5C17.5 17.8315 17.3683 18.1495 17.1339 18.3839C16.8995 18.6183 16.5815 18.75 16.25 18.75V16.25ZM13.75 11.25V13.75C13.4185 13.75 13.1005 13.6183 12.8661 13.3839C12.6317 13.1495 12.5 12.8315 12.5 12.5C12.5 12.1685 12.6317 11.8505 12.8661 11.6161C13.1005 11.3817 13.4185 11.25 13.75 11.25Z" fill="white"/>
</svg>
