<svg width="24" height="24" viewBox="0 0 24 24" fill="none" xmlns="http://www.w3.org/2000/svg">
<path d="M5.25795 11.25C5.25795 11.0511 5.33697 10.8603 5.47762 10.7197C5.61828 10.579 5.80904 10.5 6.00795 10.5H7.50795V9C7.50795 8.80109 7.58697 8.61032 7.72762 8.46967C7.86828 8.32902 8.05904 8.25 8.25795 8.25C8.45687 8.25 8.64763 8.32902 8.78828 8.46967C8.92894 8.61032 9.00795 8.80109 9.00795 9V10.5H10.508C10.7069 10.5 10.8976 10.579 11.0383 10.7197C11.1789 10.8603 11.258 11.0511 11.258 11.25C11.258 11.4489 11.1789 11.6397 11.0383 11.7803C10.8976 11.921 10.7069 12 10.508 12H9.00795V13.5C9.00795 13.6989 8.92894 13.8897 8.78828 14.0303C8.64763 14.171 8.45687 14.25 8.25795 14.25C8.05904 14.25 7.86828 14.171 7.72762 14.0303C7.58697 13.8897 7.50795 13.6989 7.50795 13.5V12H6.00795C5.80904 12 5.61828 11.921 5.47762 11.7803C5.33697 11.6397 5.25795 11.4489 5.25795 11.25ZM16.5005 13.5C16.5005 13.8978 16.3424 14.2794 16.0611 14.5607C15.7798 14.842 15.3983 15 15.0005 15C14.6026 15 14.2211 14.842 13.9398 14.5607C13.6585 14.2794 13.5005 13.8978 13.5005 13.5C13.5005 13.1022 13.6585 12.7206 13.9398 12.4393C14.2211 12.158 14.6026 12 15.0005 12C15.3983 12 15.7798 12.158 16.0611 12.4393C16.3424 12.7206 16.5005 13.1022 16.5005 13.5ZM16.5005 10.5C16.8983 10.5 17.2798 10.342 17.5611 10.0607C17.8424 9.77936 18.0005 9.39782 18.0005 9C18.0005 8.60218 17.8424 8.22064 17.5611 7.93934C17.2798 7.65804 16.8983 7.5 16.5005 7.5C16.1026 7.5 15.7211 7.65804 15.4398 7.93934C15.1585 8.22064 15.0005 8.60218 15.0005 9C15.0005 9.39782 15.1585 9.77936 15.4398 10.0607C15.7211 10.342 16.1026 10.5 16.5005 10.5ZM1.50195 11.25C1.50195 9.45979 2.21311 7.7429 3.47898 6.47703C4.74485 5.21116 6.46174 4.5 8.25195 4.5H15.764C17.5542 4.5 19.2711 5.21116 20.5369 6.47703C21.8028 7.7429 22.514 9.45979 22.514 11.25C22.514 13.0402 21.8028 14.7571 20.5369 16.023C19.2711 17.2888 17.5542 18 15.764 18H8.25195C6.46174 18 4.74485 17.2888 3.47898 16.023C2.21311 14.7571 1.50195 13.0402 1.50195 11.25ZM8.25195 6C6.85957 6 5.52421 6.55312 4.53964 7.53769C3.55508 8.52226 3.00195 9.85761 3.00195 11.25C3.00195 12.6424 3.55508 13.9777 4.53964 14.9623C5.52421 15.9469 6.85957 16.5 8.25195 16.5H15.764C17.1563 16.5 18.4917 15.9469 19.4763 14.9623C20.4608 13.9777 21.014 12.6424 21.014 11.25C21.014 9.85761 20.4608 8.52226 19.4763 7.53769C18.4917 6.55312 17.1563 6 15.764 6H8.25195Z" fill="url(#paint0_linear_475_1145)"/>
<defs>
<linearGradient id="paint0_linear_475_1145" x1="1.50195" y1="11.25" x2="22.514" y2="11.25" gradientUnits="userSpaceOnUse">
<stop stop-color="#A03D8C"/>
<stop offset="1" stop-color="#4C2CCA"/>
</linearGradient>
</defs>
</svg>
